<svg width="200" height="68" viewBox="0 0 200 68" fill="none" xmlns="http://www.w3.org/2000/svg">
<g id="EMAX_Logo-White">
<path id="Vector" d="M60.2352 55.887H58.9259L55.4926 60.2259L52.0574 55.887H50.75V61.0222H51.7944V57.2092L54.813 61.0222H56.1722L59.1889 57.2092V61.0222H60.2352V55.887Z" fill="white"/>
<path id="Vector_2" d="M73.1331 59.1592H70.2905L71.5257 56.9167H71.8961L73.1331 59.1592ZM73.7035 60.1852L74.1628 61.0259H75.4276L72.5924 55.887H70.8387L67.9961 61.0241H69.2591L69.7257 60.1833L73.7035 60.1852Z" fill="white"/>
<path id="Vector_3" d="M84.2378 58.7037V56.9204H87.7322C87.9617 56.9309 88.1783 57.0294 88.337 57.1954C88.4956 57.3615 88.5842 57.5824 88.5842 57.8121C88.5842 58.0418 88.4956 58.2626 88.337 58.4287C88.1783 58.5948 87.9617 58.6933 87.7322 58.7037H84.2378ZM88.536 61.0278H89.7415L88.8563 59.3611C89.1857 59.1235 89.4313 58.7876 89.5577 58.4016C89.6842 58.0157 89.685 57.5996 89.5601 57.2131C89.4352 56.8267 89.191 56.4898 88.8625 56.2508C88.5341 56.0119 88.1384 55.8832 87.7322 55.8834H83.1934V61.0204H84.2378V59.7241H87.7322C87.7674 59.7241 87.8119 59.7241 87.8489 59.7241L88.536 61.0278Z" fill="white"/>
<path id="Vector_4" d="M101.115 58.4592L104.112 55.887H102.643L100.436 57.787H98.7319V55.887H97.6875V61.0222H98.7319V58.8166H100.071L102.643 61.0222H104.112L101.115 58.4592Z" fill="white"/>
<path id="Vector_5" d="M112.927 56.9167H118.101V55.887H111.881V61.0222H118.101V59.9926H112.927V58.9185H115.879V57.8889H112.927V56.9167Z" fill="white"/>
<path id="Vector_6" d="M132.574 56.9167V55.887H125.705V56.9167H128.672V61.0222H129.716V56.9167H132.574Z" fill="white"/>
<path id="Vector_7" d="M147.466 57.4074V57.1963C147.466 56.8525 147.33 56.5228 147.086 56.2797C146.843 56.0366 146.514 55.9 146.17 55.9H141.781C141.381 55.9139 141.003 56.0824 140.725 56.37C140.447 56.6576 140.292 57.0418 140.292 57.4417C140.292 57.8416 140.447 58.2258 140.725 58.5134C141.003 58.801 141.381 58.9695 141.781 58.9834H145.925C146.061 58.9834 146.191 59.0372 146.287 59.1331C146.383 59.2289 146.437 59.3589 146.437 59.4945C146.437 59.63 146.383 59.76 146.287 59.8559C146.191 59.9517 146.061 60.0056 145.925 60.0056H141.533C141.498 60.0058 141.464 59.9992 141.432 59.9861C141.4 59.9729 141.371 59.9536 141.346 59.9291C141.322 59.9046 141.303 59.8756 141.289 59.8435C141.276 59.8115 141.27 59.7772 141.27 59.7426H140.24C140.24 60.0864 140.377 60.4161 140.62 60.6592C140.863 60.9023 141.193 61.0389 141.537 61.0389H145.925C146.335 61.0389 146.727 60.8764 147.016 60.5871C147.305 60.2978 147.468 59.9054 147.468 59.4963C147.468 59.0872 147.305 58.6948 147.016 58.4055C146.727 58.1163 146.335 57.9537 145.925 57.9537H141.781C141.645 57.9537 141.515 57.8999 141.42 57.804C141.324 57.7082 141.27 57.5782 141.27 57.4426C141.27 57.3071 141.324 57.1771 141.42 57.0812C141.515 56.9854 141.645 56.9315 141.781 56.9315H146.166C146.201 56.9305 146.236 56.9366 146.269 56.9494C146.302 56.9621 146.332 56.9813 146.357 57.0059C146.382 57.0304 146.402 57.0597 146.416 57.0921C146.43 57.1245 146.437 57.1593 146.437 57.1945V57.4074H147.466Z" fill="white"/>
<path id="Vector_8" d="M43.4312 6.19812H7.69043V15.3166H43.4312V6.19812Z" fill="white"/>
<path id="Vector_9" d="M101.686 6.55001L93.7784 6.54446L74.8987 31.4796L55.8136 6.20001H47.9043V13.9482L74.795 48.9796L101.686 14.6648V6.55001Z" fill="white"/>
<path id="Vector_10" d="M181.029 6.20001L153.221 42.3926L153.197 42.3815L129.886 6.60186H129.84L124.375 16.4963H124.388L145.988 50.413L159.36 50.3537L192.31 6.20001H181.029Z" fill="white"/>
<path id="Vector_11" d="M17.4182 32.8H34.4293V23.3389H17.4182V17.037H7.69043V50.3611H17.4182H43.4312V40.5537H17.4182V32.8Z" fill="white"/>
<path id="Vector_12" d="M47.9043 16.7704V20.8074V50.3519H58.6617V30.7852L47.9043 16.7704Z" fill="white"/>
<path id="Vector_13" d="M90.9277 31.1796V50.3518H101.685V20.8074V17.4537L90.9277 31.1796Z" fill="white"/>
<path id="Vector_14" d="M123.445 18.2148H123.434L105.553 50.4129H117.223L129.671 27.9944L123.445 18.2148Z" fill="white"/>
<path id="Vector_15" d="M170.398 38.437L178.126 50.3537H190.524L177.032 29.5482L170.398 38.437Z" fill="white"/>
<path id="Vector_16" d="M169.657 18.1778L162.111 6.5426H149.713L162.933 26.9278L169.657 18.1778Z" fill="white"/>
</g>
</svg>
