<svg width="57" height="56" viewBox="0 0 57 56" fill="none" xmlns="http://www.w3.org/2000/svg">
<g id="Crypto">
<g clip-path="url(#clip0_155_41795)">
<path id="Vector" d="M0.375 0H56.375V56H0.375V0Z" fill="#F7931A"/>
<path id="Vector_2" d="M40.3116 24.7043C40.8266 21.2103 38.1816 19.3473 34.5386 18.0823L35.7186 13.3743L32.8416 12.6583L31.6936 17.2503L29.3976 16.7013L30.5616 12.0763L27.6836 11.3613L26.5026 16.0863L24.6726 15.6533V15.6373L20.6966 14.6383L19.9306 17.7163C19.9306 17.7163 22.0606 18.2163 22.0266 18.2323C23.1916 18.5323 23.3916 19.2973 23.3586 19.8963L22.0266 25.2863L22.3266 25.3863L22.0106 25.3193L20.1306 32.8563C19.9976 33.2063 19.6306 33.7383 18.8166 33.5213C18.8496 33.5713 16.7366 33.0223 16.7366 33.0223L15.3066 36.3003L19.0496 37.2313L21.0956 37.7643L19.8976 42.5393L22.7756 43.2543L23.9406 38.5293L26.2526 39.1283L25.0726 43.8363L27.9496 44.5523L29.1306 39.7773C34.0386 40.7083 37.7326 40.3433 39.2806 35.9003C40.5276 32.3243 39.2136 30.2773 36.6346 28.9133C38.5146 28.4973 39.9286 27.2493 40.2946 24.7033H40.3116V24.7043ZM33.7396 33.9213C32.8576 37.4983 26.8356 35.5513 24.8896 35.0853L26.4696 28.7473C28.4156 29.2463 34.6716 30.1943 33.7396 33.9043V33.9213ZM34.6216 24.6543C33.8226 27.8983 28.7986 26.2513 27.1846 25.8523L28.6146 20.1123C30.2456 20.5123 35.4696 21.2773 34.6216 24.6543Z" fill="white"/>
</g>
</g>
<defs>
<clipPath id="clip0_155_41795">
<rect x="0.375" width="56" height="56" rx="28" fill="white"/>
</clipPath>
</defs>
</svg>
