<svg width="57" height="56" viewBox="0 0 57 56" fill="none" xmlns="http://www.w3.org/2000/svg">
<g id="Crypto">
<g clip-path="url(#clip0_155_41730)">
<path id="Vector" d="M0.625 0H56.625V56H0.625V0Z" fill="#F3BA2F"/>
<path id="Vector_2" d="M21.641 25.12L28.625 18.136L35.627 25.138L39.695 21.07L28.625 10L17.573 21.052L21.641 25.12ZM10.625 28L14.693 23.932L18.761 28L14.693 32.068L10.625 28ZM21.641 30.88L28.625 37.864L35.627 30.862L39.695 34.93L28.625 46L17.573 34.948L21.641 30.88ZM38.489 28L42.557 23.932L46.625 28L42.557 32.068L38.489 28ZM32.747 28L28.625 32.14L24.485 28L25.223 27.28L25.583 26.92L28.625 23.86L32.765 28H32.747Z" fill="white"/>
</g>
</g>
<defs>
<clipPath id="clip0_155_41730">
<rect x="0.625" width="56" height="56" rx="28" fill="white"/>
</clipPath>
</defs>
</svg>
