<svg width="46" height="32" viewBox="0 0 46 32" fill="none" xmlns="http://www.w3.org/2000/svg">
<g id="Payment method icon">
<rect x="0.5" y="0.5" width="45" height="31" rx="3.5" fill="white"/>
<path id="Skrill" fill-rule="evenodd" clip-rule="evenodd" d="M27.4631 13.0004C27.4631 12.4481 27.9006 12 28.4394 12C28.9791 12 29.4163 12.4481 29.4163 13.0004C29.4163 13.5531 28.9791 14.0002 28.4394 14.0002C27.9006 14.0002 27.4631 13.5531 27.4631 13.0004ZM30.2701 12.8181L32.2502 12.4552V20.2412H30.2701V12.8181ZM33.1623 12.8181V20.2412H35.1437V12.4552L33.1623 12.8181ZM27.4495 14.5464V20.2412H29.4306V14.5464H27.4495ZM23.5716 17.0375C23.5716 15.3648 24.5015 14.5233 26.3319 14.4629C26.3319 14.4629 26.6625 14.4499 26.8577 14.4924V16.157C25.6974 16.1979 25.5692 16.6271 25.5692 17.6282V20.2412H23.5716V17.0375ZM20.9572 14.5399L20.9472 14.5667C20.8763 14.7574 20.5535 15.6252 19.829 16.5225V12.4552L17.7844 12.8695V20.2412H19.829V17.9622C20.421 18.872 20.7136 20.2412 20.7136 20.2412H23.162C22.9199 19.2099 21.8605 17.3088 21.8605 17.3088C22.8117 16.0735 23.229 14.7579 23.2956 14.5399H20.9572ZM13.5257 14.7621C13.5257 15.2966 14.1057 15.3353 14.356 15.3518C16.1921 15.4779 17.2864 16.3984 17.2864 17.8147C17.2864 19.0643 16.3079 20.3247 14.125 20.3247C13.1129 20.3247 12.2493 20.2226 11.4834 20.0163V18.1974C11.9948 18.4129 12.8375 18.639 13.7056 18.639C14.4978 18.639 14.969 18.3706 14.969 17.9144C14.969 17.3641 14.3976 17.3282 14.1785 17.3145L14.1761 17.3143C11.6191 17.1359 11.3438 15.5868 11.3438 14.9291C11.3438 13.787 12.135 12.4552 14.3684 12.4552C15.6638 12.4552 16.3622 12.6622 16.9637 12.8776L16.9939 12.887V14.6536L16.9713 14.6471C16.7299 14.5425 16.4462 14.4398 16.4462 14.4398C15.9367 14.2835 15.2241 14.1172 14.6733 14.1172C14.3601 14.1172 13.5257 14.1172 13.5257 14.7621Z" fill="#862165"/>
<rect x="0.5" y="0.5" width="45" height="31" rx="3.5" stroke="#F2F4F7"/>
</g>
</svg>
