<svg width="57" height="56" viewBox="0 0 57 56" fill="none" xmlns="http://www.w3.org/2000/svg">
<g id="Crypto">
<g clip-path="url(#clip0_155_41810)">
<path id="Vector" d="M0.125 0H56.125V56H0.125V0Z" fill="#26A17B"/>
<path id="Vector_2" d="M31.125 30.121C30.959 30.121 30.245 30.189 28.158 30.189C26.485 30.189 25.539 30.139 25.125 30.121C18.682 29.835 13.632 28.705 13.632 27.339C13.632 25.973 18.682 24.826 25.125 24.539V28.992H31.125V24.54C37.551 24.826 42.601 25.973 42.601 27.339C42.601 28.688 37.551 29.835 31.125 30.121ZM31.125 24.068V20H40.125V14H16.125V20H25.125V24.067C17.837 24.405 12.125 25.889 12.125 27.642C12.125 29.396 17.837 30.88 25.125 31.218V44H31.125V31.218C38.413 30.88 44.125 29.396 44.125 27.642C44.125 25.889 38.413 24.422 31.125 24.067V24.068Z" fill="white"/>
</g>
</g>
<defs>
<clipPath id="clip0_155_41810">
<rect x="0.125" width="56" height="56" rx="28" fill="white"/>
</clipPath>
</defs>
</svg>
