<svg width="57" height="56" viewBox="0 0 57 56" fill="none" xmlns="http://www.w3.org/2000/svg">
<g id="Group">
<path id="Vector" d="M28.875 56C44.339 56 56.875 43.464 56.875 28C56.875 12.536 44.339 0 28.875 0C13.411 0 0.875 12.536 0.875 28C0.875 43.464 13.411 56 28.875 56Z" fill="#23292F"/>
<path id="Vector_2" d="M41.2475 14H46.305L35.7788 24.4247C33.9384 26.238 31.4585 27.2544 28.875 27.2544C26.2915 27.2544 23.8116 26.238 21.9713 24.4247L11.4362 14H16.5025L24.5 21.9152C25.6646 23.0648 27.2351 23.7093 28.8715 23.7093C30.5079 23.7093 32.0784 23.0648 33.243 21.9152L41.2475 14ZM16.4413 42.9852H11.375L21.9713 32.4975C23.8116 30.6843 26.2915 29.6679 28.875 29.6679C31.4585 29.6679 33.9384 30.6843 35.7788 32.4975L46.375 42.9835H41.3088L33.25 35C32.0854 33.8505 30.5149 33.206 28.8785 33.206C27.2421 33.206 25.6716 33.8505 24.507 35L16.4395 42.9852H16.4413Z" fill="white"/>
</g>
</svg>
